<svg width="26" height="26" viewBox="0 0 26 26" fill="none" xmlns="http://www.w3.org/2000/svg">
    <circle cx="12.673" cy="12.856" r="12" stroke="#A7A7A7"/>
    <g clip-path="url(#u6aaru13ha)">
        <path d="M12.673 6.116c-3.944 0-7.144 2.798-7.144 6.248 0 2.548 1.129 3.766 2.676 4.874l.007.003v2.991c0 .142.17.222.29.137l2.709-1.902.058.025c.455.078.924.12 1.404.12 3.944 0 7.144-2.797 7.144-6.248 0-3.45-3.198-6.248-7.144-6.248z" fill="#fff"/>
        <path d="M12.673 5.76c-4.142 0-7.5 2.937-7.5 6.559 0 2.675 1.186 3.953 2.809 5.117l.007.003v3.14c0 .148.18.233.304.143l2.843-1.997.063.025c.477.083.97.127 1.474.127 4.141 0 7.5-2.937 7.5-6.56 0-3.623-3.357-6.557-7.5-6.557zm-2.513 8.22c.734 0 1.364-.416 1.554-1.058H12.8c-.266 1.237-1.284 2.048-2.641 2.048-1.577 0-2.826-1.112-2.826-2.66 0-1.547 1.25-2.659 2.826-2.659 1.37 0 2.395.827 2.648 2.086h-1.084c-.164-.685-.816-1.111-1.564-1.111-1.06 0-1.765.714-1.765 1.683 0 .969.802 1.67 1.765 1.67m7.164.888h-.997V12.74c0-.488-.3-.751-.764-.751-.517 0-.85.299-.85.905v1.973h-.998V9.669h.998v1.957c.238-.343.625-.512 1.15-.512.426 0 .773.13 1.043.402.278.27.418.636.418 1.11v2.242-.001z" fill="#A7A7A7"/>
    </g>
    <defs>
        <clipPath id="u6aaru13ha">
            <path fill="#fff" transform="translate(5.173 5.76)" d="M0 0h15v15H0z"/>
        </clipPath>
    </defs>
</svg>
