<svg width="6" height="8" viewBox="0 0 6 8" fill="none" xmlns="http://www.w3.org/2000/svg">
<path d="M1.00918 0.939741L1.39347 0.816881C1.75383 0.701879 2.13884 0.887954 2.29313 1.25153L2.60028 1.97583C2.73385 2.29119 2.65956 2.66227 2.4167 2.89299L1.7399 3.53515C1.78169 3.91944 1.91098 4.29766 2.12741 4.66981C2.33294 5.02987 2.60862 5.34502 2.93814 5.59661L3.75101 5.32518C4.05888 5.22268 4.3946 5.34089 4.58317 5.6184L5.02354 6.26484C5.24318 6.5877 5.20354 7.03271 4.93103 7.30629L4.63924 7.59951C4.34852 7.8913 3.93316 7.99737 3.54922 7.87737C2.64206 7.59451 1.80883 6.75485 1.0481 5.3584C0.286305 3.9598 0.0173711 2.77263 0.241661 1.79833C0.335949 1.38832 0.62774 1.06153 1.00918 0.939741Z" fill="white"/>
</svg>
