<svg width="26" height="26" viewBox="0 0 26 26" fill="none" xmlns="http://www.w3.org/2000/svg">
    <circle cx="12.673" cy="12.856" r="12" stroke="#A7A7A7"/>
    <path fill-rule="evenodd" clip-rule="evenodd" d="M9.272 5.11c.88-.037 1.16-.046 3.401-.046 2.241 0 2.521.01 3.4.047.88.037 1.48.17 2.005.362a4.09 4.09 0 0 1 1.46.9c.42.388.744.859.951 1.378.204.496.344 1.063.384 1.892.041.832.05 1.097.05 3.213s-.01 2.381-.05 3.212c-.04.829-.18 1.395-.384 1.891-.207.52-.531.991-.95 1.38a4.076 4.076 0 0 1-1.462.899c-.525.193-1.125.324-2.002.363-.88.038-1.161.046-3.402.046s-2.521-.009-3.401-.046c-.878-.038-1.478-.17-2.003-.363a4.077 4.077 0 0 1-1.462-.898c-.42-.39-.744-.86-.951-1.38-.204-.496-.343-1.063-.384-1.891-.04-.832-.049-1.097-.049-3.213 0-2.117.01-2.382.05-3.212.04-.83.18-1.397.383-1.893.207-.52.532-.99.952-1.38.412-.396.91-.702 1.46-.898.525-.192 1.125-.324 2.003-.362zm6.735 1.403c-.87-.037-1.131-.045-3.334-.045-2.203 0-2.464.008-3.334.045-.805.035-1.241.162-1.532.269-.385.141-.66.31-.949.582a2.408 2.408 0 0 0-.616.896c-.114.275-.248.687-.285 1.447-.04.822-.048 1.068-.048 3.149 0 2.08.009 2.327.048 3.148.037.76.171 1.173.285 1.447.132.338.342.645.616.896.266.259.591.458.949.583.291.107.727.233 1.532.268.87.038 1.13.046 3.334.046s2.464-.008 3.334-.046c.804-.035 1.241-.161 1.532-.268.385-.142.66-.31.949-.582a2.41 2.41 0 0 0 .616-.897c.114-.274.248-.687.285-1.447.04-.821.047-1.068.047-3.148s-.008-2.327-.047-3.149c-.037-.76-.171-1.172-.285-1.447a2.41 2.41 0 0 0-.616-.896 2.579 2.579 0 0 0-.949-.582c-.291-.107-.728-.234-1.532-.269zm-4.388 8.745a2.903 2.903 0 0 0 1.854.088 2.745 2.745 0 0 0 1.492-1.044c.354-.5.513-1.101.45-1.7a2.542 2.542 0 0 0-.796-1.584 2.779 2.779 0 0 0-1.019-.61 2.902 2.902 0 0 0-2.342.219 2.69 2.69 0 0 0-.873.785c-.226.32-.374.682-.434 1.063-.06.38-.03.768.088 1.136.118.367.321.706.595.99.273.285.61.51.985.657zm-1.945-5.234a4.265 4.265 0 0 1 1.376-.868 4.458 4.458 0 0 1 3.246 0c.514.2.982.496 1.376.868.393.372.706.813.919 1.3a3.813 3.813 0 0 1 0 3.064 3.999 3.999 0 0 1-.92 1.3 4.37 4.37 0 0 1-2.998 1.173 4.37 4.37 0 0 1-2.999-1.173 3.896 3.896 0 0 1-1.242-2.832c0-1.062.447-2.081 1.242-2.832zm8.18-.577a.948.948 0 0 0 .23-.307.902.902 0 0 0-.21-1.051 1.008 1.008 0 0 0-.331-.208 1.055 1.055 0 0 0-.781.01 1.004 1.004 0 0 0-.326.217.919.919 0 0 0-.273.664c.004.247.11.482.294.656.184.174.433.274.694.277.261.004.513-.089.703-.258z" fill="#A7A7A7"/>
</svg>
