<svg width="26" height="26" viewBox="0 0 26 26" fill="none" xmlns="http://www.w3.org/2000/svg">
    <circle cx="12.673" cy="12.856" r="12" stroke="#A7A7A7"/>
    <g clip-path="url(#zzluxramva)">
        <path d="M20.34 9.098a1.857 1.857 0 0 0-.511-.847 2.033 2.033 0 0 0-.892-.494c-1.252-.33-6.268-.33-6.268-.33a51.083 51.083 0 0 0-6.26.313 2.107 2.107 0 0 0-.892.507c-.247.237-.425.53-.519.85a19.394 19.394 0 0 0-.325 3.663 19.36 19.36 0 0 0 .325 3.663c.092.32.27.61.517.846.247.235.555.405.894.495 1.269.33 6.26.33 6.26.33 2.094.023 4.187-.081 6.268-.314.335-.086.641-.257.892-.495.244-.23.42-.523.51-.846.23-1.208.342-2.434.334-3.664a17.721 17.721 0 0 0-.333-3.678v.001zm-9.266 5.945v-4.565l4.174 2.283-4.174 2.282z" fill="#A7A7A7"/>
    </g>
    <defs>
        <clipPath id="zzluxramva">
            <path fill="#fff" transform="translate(4.673 4.76)" d="M0 0h16v16H0z"/>
        </clipPath>
    </defs>
</svg>
